<mxfile host="app.diagrams.net" modified="2023-05-03T17:14:14.337Z" agent="Mozilla/5.0 (Windows NT 10.0; Win64; x64) AppleWebKit/537.36 (KHTML, like Gecko) Chrome/112.0.0.0 Safari/537.36" etag="6zOKUzXbMbD6W9cvoqdv" version="21.2.7" type="device">
  <diagram name="Page-1" id="h8D7fdhujeO2c2CHI0za">
    <mxGraphModel dx="882" dy="539" grid="1" gridSize="10" guides="1" tooltips="1" connect="1" arrows="1" fold="1" page="1" pageScale="1" pageWidth="850" pageHeight="1100" math="0" shadow="0">
      <root>
        <mxCell id="0" />
        <mxCell id="1" parent="0" />
        <mxCell id="GSqaPZXbKgT2MId3amK6-6" style="edgeStyle=orthogonalEdgeStyle;rounded=0;orthogonalLoop=1;jettySize=auto;html=1;exitX=1;exitY=0.5;exitDx=0;exitDy=0;entryX=0.5;entryY=0;entryDx=0;entryDy=0;" edge="1" parent="1" source="GSqaPZXbKgT2MId3amK6-1" target="GSqaPZXbKgT2MId3amK6-4">
          <mxGeometry relative="1" as="geometry" />
        </mxCell>
        <mxCell id="GSqaPZXbKgT2MId3amK6-1" value="User A" style="rounded=1;whiteSpace=wrap;html=1;" vertex="1" parent="1">
          <mxGeometry x="80" y="80" width="120" height="60" as="geometry" />
        </mxCell>
        <mxCell id="GSqaPZXbKgT2MId3amK6-2" value="User B" style="rounded=1;whiteSpace=wrap;html=1;" vertex="1" parent="1">
          <mxGeometry x="80" y="200" width="120" height="60" as="geometry" />
        </mxCell>
        <mxCell id="GSqaPZXbKgT2MId3amK6-8" style="edgeStyle=orthogonalEdgeStyle;rounded=0;orthogonalLoop=1;jettySize=auto;html=1;exitX=1;exitY=0.5;exitDx=0;exitDy=0;entryX=0.5;entryY=1;entryDx=0;entryDy=0;" edge="1" parent="1" source="GSqaPZXbKgT2MId3amK6-3" target="GSqaPZXbKgT2MId3amK6-4">
          <mxGeometry relative="1" as="geometry" />
        </mxCell>
        <mxCell id="GSqaPZXbKgT2MId3amK6-3" value="User C" style="rounded=1;whiteSpace=wrap;html=1;" vertex="1" parent="1">
          <mxGeometry x="80" y="320" width="120" height="60" as="geometry" />
        </mxCell>
        <mxCell id="GSqaPZXbKgT2MId3amK6-10" style="edgeStyle=orthogonalEdgeStyle;rounded=0;orthogonalLoop=1;jettySize=auto;html=1;exitX=0;exitY=0.5;exitDx=0;exitDy=0;entryX=1;entryY=0.5;entryDx=0;entryDy=0;" edge="1" parent="1" source="GSqaPZXbKgT2MId3amK6-4" target="GSqaPZXbKgT2MId3amK6-2">
          <mxGeometry relative="1" as="geometry" />
        </mxCell>
        <mxCell id="GSqaPZXbKgT2MId3amK6-12" style="edgeStyle=orthogonalEdgeStyle;rounded=0;orthogonalLoop=1;jettySize=auto;html=1;exitX=1;exitY=0.5;exitDx=0;exitDy=0;entryX=0;entryY=0.5;entryDx=0;entryDy=0;" edge="1" parent="1" source="GSqaPZXbKgT2MId3amK6-4" target="GSqaPZXbKgT2MId3amK6-5">
          <mxGeometry relative="1" as="geometry" />
        </mxCell>
        <mxCell id="GSqaPZXbKgT2MId3amK6-4" value="Instagram" style="rounded=1;whiteSpace=wrap;html=1;" vertex="1" parent="1">
          <mxGeometry x="280" y="200" width="120" height="60" as="geometry" />
        </mxCell>
        <mxCell id="GSqaPZXbKgT2MId3amK6-5" value="DB" style="rounded=1;whiteSpace=wrap;html=1;" vertex="1" parent="1">
          <mxGeometry x="480" y="200" width="120" height="60" as="geometry" />
        </mxCell>
        <mxCell id="GSqaPZXbKgT2MId3amK6-7" value="Follow user B, upload photos" style="text;html=1;strokeColor=none;fillColor=none;align=center;verticalAlign=middle;whiteSpace=wrap;rounded=0;" vertex="1" parent="1">
          <mxGeometry x="230" y="80" width="160" height="30" as="geometry" />
        </mxCell>
        <mxCell id="GSqaPZXbKgT2MId3amK6-9" value="Search photos" style="text;html=1;strokeColor=none;fillColor=none;align=center;verticalAlign=middle;whiteSpace=wrap;rounded=0;" vertex="1" parent="1">
          <mxGeometry x="220" y="320" width="100" height="30" as="geometry" />
        </mxCell>
        <mxCell id="GSqaPZXbKgT2MId3amK6-11" value="Feedback" style="text;html=1;strokeColor=none;fillColor=none;align=center;verticalAlign=middle;whiteSpace=wrap;rounded=0;" vertex="1" parent="1">
          <mxGeometry x="210" y="200" width="60" height="30" as="geometry" />
        </mxCell>
      </root>
    </mxGraphModel>
  </diagram>
</mxfile>
